<svg class="main-svg" xmlns="http://www.w3.org/2000/svg" xmlns:xlink="http://www.w3.org/1999/xlink" width="700" height="500" style="" viewBox="0 0 700 500"><rect x="0" y="0" width="700" height="500" style="fill: rgb(17, 17, 17); fill-opacity: 1;"/><defs id="defs-007c28"><g class="clips"><clipPath id="clip007c28polar-for-traces"><path d="M180,0A180,180 0,1,0 -180,-2.2043642384652358e-14A180,180 0,1,0 180,4.4087284769304716e-14Z" transform="translate(180,180)"/></clipPath></g><g class="gradients"/><g class="patterns"/></defs><g class="bglayer"/><g class="layer-below"><g class="imagelayer"/><g class="shapelayer"/></g><g class="cartesianlayer"/><g class="polarlayer"><g class="polar"><g class="polarsublayer draglayer"/><g class="polarsublayer plotbg"><path d="M180,0A180,180 0,1,0 -180,-2.2043642384652358e-14A180,180 0,1,0 180,4.4087284769304716e-14Z" transform="translate(350,240)" style="fill: rgb(17, 17, 17); fill-opacity: 1;"/></g><g class="polarsublayer backplot"><g class="maplayer"/></g><g class="polarsublayer angular-grid" style="fill: none;"><path class="angularaxisgrid" d="M350,240L530,240" style="stroke: rgb(80, 103, 132); stroke-opacity: 1; stroke-width: 1px;"/><path class="angularaxisgrid" d="M350,240L477.27922061357856,112.72077938642146" style="stroke: rgb(80, 103, 132); stroke-opacity: 1; stroke-width: 1px;"/><path class="angularaxisgrid" d="M350,240L350,60" style="stroke: rgb(80, 103, 132); stroke-opacity: 1; stroke-width: 1px;"/><path class="angularaxisgrid" d="M350,240L222.72077938642144,112.72077938642144" style="stroke: rgb(80, 103, 132); stroke-opacity: 1; stroke-width: 1px;"/><path class="angularaxisgrid" d="M350,240L170,239.99999999999997" style="stroke: rgb(80, 103, 132); stroke-opacity: 1; stroke-width: 1px;"/><path class="angularaxisgrid" d="M350,240L222.7207793864214,367.27922061357856" style="stroke: rgb(80, 103, 132); stroke-opacity: 1; stroke-width: 1px;"/><path class="angularaxisgrid" d="M350,240L349.99999999999994,420" style="stroke: rgb(80, 103, 132); stroke-opacity: 1; stroke-width: 1px;"/><path class="angularaxisgrid" d="M350,240L477.2792206135785,367.27922061357856" style="stroke: rgb(80, 103, 132); stroke-opacity: 1; stroke-width: 1px;"/></g><g class="polarsublayer radial-grid" transform="translate(350,240)" style="fill: none;"><path class="xgrid" d="M28.65,0A28.65,28.65 0,1,0 -28.65,-3.508613079557167e-15A28.65,28.65 0,1,0 28.65,7.017226159114334e-15Z" style="stroke: rgb(80, 103, 132); stroke-opacity: 1; stroke-width: 1px;"/><path class="xgrid" d="M57.31,0A57.31,57.31 0,1,0 -57.31,-7.018450805913481e-15A57.31,57.31 0,1,0 57.31,1.4036901611826963e-14Z" style="stroke: rgb(80, 103, 132); stroke-opacity: 1; stroke-width: 1px;"/><path class="xgrid" d="M85.96,0A85.96,85.96 0,1,0 -85.96,-1.0527063885470647e-14A85.96,85.96 0,1,0 85.96,2.1054127770941293e-14Z" style="stroke: rgb(80, 103, 132); stroke-opacity: 1; stroke-width: 1px;"/><path class="xgrid" d="M114.62,0A114.62,114.62 0,1,0 -114.62,-1.4036901611826963e-14A114.62,114.62 0,1,0 114.62,2.8073803223653925e-14Z" style="stroke: rgb(80, 103, 132); stroke-opacity: 1; stroke-width: 1px;"/><path class="xgrid" d="M143.27,0A143.27,143.27 0,1,0 -143.27,-1.7545514691384132e-14A143.27,143.27 0,1,0 143.27,3.5091029382768264e-14Z" style="stroke: rgb(80, 103, 132); stroke-opacity: 1; stroke-width: 1px;"/><path class="xgrid" d="M171.93,0A171.93,171.93 0,1,0 -171.93,-2.1055352417740445e-14A171.93,171.93 0,1,0 171.93,4.211070483548089e-14Z" style="stroke: rgb(80, 103, 132); stroke-opacity: 1; stroke-width: 1px;"/></g><g class="polarsublayer frontplot" transform="translate(170,60)"><g class="barlayer"/><g class="scatterlayer"><g class="trace scatter trace83639b" style="stroke-miterlimit: 2; opacity: 1;"><g class="fills" clip-path="url(#clip007c28polar-for-traces)"><g><path class="js-fill" d="M356.25,180L328.22,118.61L270.4,89.6L218.99,85.88L180,87.27L141.01,85.88L89.6,89.6L31.78,118.61L3.75,180L31.78,241.39L89.6,270.4L141.01,274.12L180,272.73L218.99,274.12L270.4,270.4L328.22,241.39L356.25,180Z" style="fill: rgb(99, 110, 250); fill-opacity: 0.5; stroke-width: 0;"/></g></g><g class="errorbars"/><g class="lines"><path class="js-line" d="M356.25,180L328.22,118.61L270.4,89.6L218.99,85.88L180,87.27L141.01,85.88L89.6,89.6L31.78,118.61L3.75,180L31.78,241.39L89.6,270.4L141.01,274.12L180,272.73L218.99,274.12L270.4,270.4L328.22,241.39L356.25,180" clip-path="url(#clip007c28polar-for-traces)" style="vector-effect: non-scaling-stroke; fill: none; stroke: rgb(99, 110, 250); stroke-opacity: 1; stroke-width: 2px; opacity: 1;"/></g><g class="points"><path class="point" transform="translate(356.25,180)" d="M3,0A3,3 0 1,1 0,-3A3,3 0 0,1 3,0Z" style="opacity: 1; stroke-width: 0px; fill: rgb(99, 110, 250); fill-opacity: 1;"/><path class="point" transform="translate(328.22,118.61)" d="M3,0A3,3 0 1,1 0,-3A3,3 0 0,1 3,0Z" style="opacity: 1; stroke-width: 0px; fill: rgb(99, 110, 250); fill-opacity: 1;"/><path class="point" transform="translate(270.4,89.6)" d="M3,0A3,3 0 1,1 0,-3A3,3 0 0,1 3,0Z" style="opacity: 1; stroke-width: 0px; fill: rgb(99, 110, 250); fill-opacity: 1;"/><path class="point" transform="translate(218.99,85.88)" d="M3,0A3,3 0 1,1 0,-3A3,3 0 0,1 3,0Z" style="opacity: 1; stroke-width: 0px; fill: rgb(99, 110, 250); fill-opacity: 1;"/><path class="point" transform="translate(180,87.27)" d="M3,0A3,3 0 1,1 0,-3A3,3 0 0,1 3,0Z" style="opacity: 1; stroke-width: 0px; fill: rgb(99, 110, 250); fill-opacity: 1;"/><path class="point" transform="translate(141.01,85.88)" d="M3,0A3,3 0 1,1 0,-3A3,3 0 0,1 3,0Z" style="opacity: 1; stroke-width: 0px; fill: rgb(99, 110, 250); fill-opacity: 1;"/><path class="point" transform="translate(89.6,89.6)" d="M3,0A3,3 0 1,1 0,-3A3,3 0 0,1 3,0Z" style="opacity: 1; stroke-width: 0px; fill: rgb(99, 110, 250); fill-opacity: 1;"/><path class="point" transform="translate(31.78,118.61)" d="M3,0A3,3 0 1,1 0,-3A3,3 0 0,1 3,0Z" style="opacity: 1; stroke-width: 0px; fill: rgb(99, 110, 250); fill-opacity: 1;"/><path class="point" transform="translate(3.75,180)" d="M3,0A3,3 0 1,1 0,-3A3,3 0 0,1 3,0Z" style="opacity: 1; stroke-width: 0px; fill: rgb(99, 110, 250); fill-opacity: 1;"/><path class="point" transform="translate(31.78,241.39)" d="M3,0A3,3 0 1,1 0,-3A3,3 0 0,1 3,0Z" style="opacity: 1; stroke-width: 0px; fill: rgb(99, 110, 250); fill-opacity: 1;"/><path class="point" transform="translate(89.6,270.4)" d="M3,0A3,3 0 1,1 0,-3A3,3 0 0,1 3,0Z" style="opacity: 1; stroke-width: 0px; fill: rgb(99, 110, 250); fill-opacity: 1;"/><path class="point" transform="translate(141.01,274.12)" d="M3,0A3,3 0 1,1 0,-3A3,3 0 0,1 3,0Z" style="opacity: 1; stroke-width: 0px; fill: rgb(99, 110, 250); fill-opacity: 1;"/><path class="point" transform="translate(180,272.73)" d="M3,0A3,3 0 1,1 0,-3A3,3 0 0,1 3,0Z" style="opacity: 1; stroke-width: 0px; fill: rgb(99, 110, 250); fill-opacity: 1;"/><path class="point" transform="translate(218.99,274.12)" d="M3,0A3,3 0 1,1 0,-3A3,3 0 0,1 3,0Z" style="opacity: 1; stroke-width: 0px; fill: rgb(99, 110, 250); fill-opacity: 1;"/><path class="point" transform="translate(270.4,270.4)" d="M3,0A3,3 0 1,1 0,-3A3,3 0 0,1 3,0Z" style="opacity: 1; stroke-width: 0px; fill: rgb(99, 110, 250); fill-opacity: 1;"/><path class="point" transform="translate(328.22,241.39)" d="M3,0A3,3 0 1,1 0,-3A3,3 0 0,1 3,0Z" style="opacity: 1; stroke-width: 0px; fill: rgb(99, 110, 250); fill-opacity: 1;"/><path class="point" transform="translate(356.25,180)" d="M3,0A3,3 0 1,1 0,-3A3,3 0 0,1 3,0Z" style="opacity: 1; stroke-width: 0px; fill: rgb(99, 110, 250); fill-opacity: 1;"/></g><g class="text"/></g></g></g><g class="polarsublayer angular-line"><path d="M180,0A180,180 0,1,0 -180,-2.2043642384652358e-14A180,180 0,1,0 180,4.4087284769304716e-14Z" transform="translate(350,240)" stroke-width="1" style="fill: none; stroke: rgb(80, 103, 132); stroke-opacity: 1;"/></g><g class="polarsublayer radial-line"><line x1="0" y1="0" x2="180" y2="0" transform="translate(350,240)" stroke-width="1" style="fill: none; stroke: rgb(80, 103, 132); stroke-opacity: 1;"/></g><g class="polarsublayer angular-axis"><g class="angularaxistick"><text text-anchor="start" x="2.9000000000000004" y="4.199999999999999" transform="translate(530,240)" style="font-family: 'Open Sans', verdana, arial, sans-serif; font-size: 12px; fill: rgb(242, 245, 250); fill-opacity: 1; white-space: pre; opacity: 1;">0°</text></g><g class="angularaxistick"><text text-anchor="start" x="2.050609665440988" y="-0.7778174593052025" transform="translate(477.27922061357856,112.72077938642146)" style="font-family: 'Open Sans', verdana, arial, sans-serif; font-size: 12px; fill: rgb(242, 245, 250); fill-opacity: 1; white-space: pre; opacity: 1;">45°</text></g><g class="angularaxistick"><text text-anchor="middle" x="1.7757378587636624e-16" y="-5.300000000000001" transform="translate(350,60)" style="font-family: 'Open Sans', verdana, arial, sans-serif; font-size: 12px; fill: rgb(242, 245, 250); fill-opacity: 1; white-space: pre; opacity: 1;">90°</text></g><g class="angularaxistick"><text text-anchor="end" x="-2.0506096654409878" y="-0.7778174593052039" transform="translate(222.72077938642144,112.72077938642144)" style="font-family: 'Open Sans', verdana, arial, sans-serif; font-size: 12px; fill: rgb(242, 245, 250); fill-opacity: 1; white-space: pre; opacity: 1;">135°</text></g><g class="angularaxistick"><text text-anchor="end" x="-2.9000000000000004" y="4.199999999999998" transform="translate(170,239.99999999999997)" style="font-family: 'Open Sans', verdana, arial, sans-serif; font-size: 12px; fill: rgb(242, 245, 250); fill-opacity: 1; white-space: pre; opacity: 1;">180°</text></g><g class="angularaxistick"><text text-anchor="end" x="-2.0506096654409887" y="13.505739520663056" transform="translate(222.7207793864214,367.27922061357856)" style="font-family: 'Open Sans', verdana, arial, sans-serif; font-size: 12px; fill: rgb(242, 245, 250); fill-opacity: 1; white-space: pre; opacity: 1;">225°</text></g><g class="angularaxistick"><text text-anchor="middle" x="-5.327213576290987e-16" y="14.9" transform="translate(349.99999999999994,420)" style="font-family: 'Open Sans', verdana, arial, sans-serif; font-size: 12px; fill: rgb(242, 245, 250); fill-opacity: 1; white-space: pre; opacity: 1;">270°</text></g><g class="angularaxistick"><text text-anchor="start" x="2.0506096654409878" y="13.50573952066306" transform="translate(477.2792206135785,367.27922061357856)" style="font-family: 'Open Sans', verdana, arial, sans-serif; font-size: 12px; fill: rgb(242, 245, 250); fill-opacity: 1; white-space: pre; opacity: 1;">315°</text></g></g><g class="polarsublayer radial-axis" transform="translate(350,240)"><g class="xtick"><text text-anchor="middle" x="0" y="14.9" transform="" style="font-family: 'Open Sans', verdana, arial, sans-serif; font-size: 12px; fill: rgb(242, 245, 250); fill-opacity: 1; white-space: pre; opacity: 1;">0</text></g><g class="xtick"><text text-anchor="middle" x="0" y="14.9" transform="translate(28.65,0)" style="font-family: 'Open Sans', verdana, arial, sans-serif; font-size: 12px; fill: rgb(242, 245, 250); fill-opacity: 1; white-space: pre; opacity: 1;">5</text></g><g class="xtick"><text text-anchor="middle" x="0" y="14.9" transform="translate(57.31,0)" style="font-family: 'Open Sans', verdana, arial, sans-serif; font-size: 12px; fill: rgb(242, 245, 250); fill-opacity: 1; white-space: pre; opacity: 1;">10</text></g><g class="xtick"><text text-anchor="middle" x="0" y="14.9" transform="translate(85.96,0)" style="font-family: 'Open Sans', verdana, arial, sans-serif; font-size: 12px; fill: rgb(242, 245, 250); fill-opacity: 1; white-space: pre; opacity: 1;">15</text></g><g class="xtick"><text text-anchor="middle" x="0" y="14.9" transform="translate(114.62,0)" style="font-family: 'Open Sans', verdana, arial, sans-serif; font-size: 12px; fill: rgb(242, 245, 250); fill-opacity: 1; white-space: pre; opacity: 1;">20</text></g><g class="xtick"><text text-anchor="middle" x="0" y="14.9" transform="translate(143.27,0)" style="font-family: 'Open Sans', verdana, arial, sans-serif; font-size: 12px; fill: rgb(242, 245, 250); fill-opacity: 1; white-space: pre; opacity: 1;">25</text></g><g class="xtick"><text text-anchor="middle" x="0" y="14.9" transform="translate(171.93,0)" style="font-family: 'Open Sans', verdana, arial, sans-serif; font-size: 12px; fill: rgb(242, 245, 250); fill-opacity: 1; white-space: pre; opacity: 1;">30</text></g></g></g></g><g class="smithlayer"/><g class="ternarylayer"/><g class="geolayer"/><g class="funnelarealayer"/><g class="pielayer"/><g class="iciclelayer"/><g class="treemaplayer"/><g class="sunburstlayer"/><g class="glimages"/><defs id="topdefs-007c28"><g class="clips"/></defs><g class="layer-above"><g class="imagelayer"/><g class="shapelayer"/></g><g class="infolayer"><g class="g-gtitle"/><g class="g-polartitle"/></g></svg>